<?xml version="1.0" encoding="UTF-8" standalone="no" ?>
<!DOCTYPE svg PUBLIC "-//W3C//DTD SVG 1.1//EN" "http://www.w3.org/Graphics/SVG/1.1/DTD/svg11.dtd">
<svg xmlns="http://www.w3.org/2000/svg" xmlns:xlink="http://www.w3.org/1999/xlink" version="1.1" width="334.50396118164065" height="95.968" xml:space="preserve">
<desc>Created with Fabric.js 1.6.0-rc.1</desc>
<defs></defs>
  <g transform="translate(224.35 48.52) scale(1.2 1.2)">
   <text font-family="Ikaros" font-size="40" font-weight="normal" style="stroke: none; stroke-width: 1; stroke-dasharray: none; stroke-linecap: butt; stroke-linejoin: miter; stroke-miterlimit: 10; fill: #0f1628; fill-rule: nonzero; opacity: 1;" ><tspan x="-83.96" y="8.98" style="stroke: none; stroke-width: 0; stroke-dasharray: none; stroke-linecap: butt; stroke-linejoin: miter; stroke-miterlimit: 4; fill: #0f1628; fill-rule: ; opacity: 1;">H</tspan><tspan x="-59.48" y="8.98" style="stroke: none; stroke-width: 0; stroke-dasharray: none; stroke-linecap: butt; stroke-linejoin: miter; stroke-miterlimit: 4; fill: #0f1628; fill-rule: ; opacity: 1;">a</tspan><tspan x="-36.92" y="8.98" style="stroke: none; stroke-width: 0; stroke-dasharray: none; stroke-linecap: butt; stroke-linejoin: miter; stroke-miterlimit: 4; fill: #0f1628; fill-rule: ; opacity: 1;">r</tspan><tspan x="-24.28" y="8.98" style="stroke: none; stroke-width: 0; stroke-dasharray: none; stroke-linecap: butt; stroke-linejoin: miter; stroke-miterlimit: 4; fill: #0f1628; fill-rule: ; opacity: 1;">m</tspan><tspan x="12.36" y="8.98" style="stroke: none; stroke-width: 0; stroke-dasharray: none; stroke-linecap: butt; stroke-linejoin: miter; stroke-miterlimit: 4; fill: #0f1628; fill-rule: ; opacity: 1;">o</tspan><tspan x="34.16" y="8.98" style="stroke: none; stroke-width: 0; stroke-dasharray: none; stroke-linecap: butt; stroke-linejoin: miter; stroke-miterlimit: 4; fill: #0f1628; fill-rule: ; opacity: 1;">n</tspan><tspan x="55.8" y="8.98" style="stroke: none; stroke-width: 0; stroke-dasharray: none; stroke-linecap: butt; stroke-linejoin: miter; stroke-miterlimit: 4; fill: #0f1628; fill-rule: ; opacity: 1;">i</tspan><tspan x="61.72" y="8.98" style="stroke: none; stroke-width: 0; stroke-dasharray: none; stroke-linecap: butt; stroke-linejoin: miter; stroke-miterlimit: 4; fill: #0f1628; fill-rule: ; opacity: 1;">e</tspan></text>
 </g>
<g style="stroke: none; stroke-width: 1; stroke-dasharray: none; stroke-linecap: butt; stroke-linejoin: miter; stroke-miterlimit: 10; fill: none; fill-rule: nonzero; opacity: 1;" transform="translate(9.999999999999993 10) scale(0.64 0.64)" >
  <path d="M 148.292 91.883 c -32.25 22.313 -69.092 24.94 -82.288 5.867 C 52.81 78.677 68.26 45.128 100.51 22.815 C 132.76 0.502 169.602 -2.123 182.797 16.95 a 25.324 25.324 0 0 1 2.63 4.912 c -0.86 -2.757 -2.087 -5.357 -3.739 -7.746 c -14.608 -21.116 -55.4 -18.21 -91.11 6.495 c -35.708 24.705 -52.813 61.852 -38.203 82.97 c 14.61 21.116 55.402 18.208 91.11 -6.497 c 11.214 -7.758 20.591 -16.746 27.73 -26.076 c -6.143 7.465 -13.87 14.612 -22.923 20.875 z M 54.256 22.9 c 0.797 -0.55 1.598 -1.08 2.4 -1.608 c -6.964 2.77 -14.025 6.517 -20.86 11.245 C 6.361 52.902 -7.74 83.524 4.303 100.933 c 5.442 7.866 15.3 11.675 27.181 11.622 c -5.694 -2.23 -10.398 -5.697 -13.694 -10.46 C 3.846 81.937 20.173 46.481 54.256 22.9 z" style="stroke: none; stroke-width: 1; stroke-dasharray: none; stroke-linecap: butt; stroke-linejoin: miter; stroke-miterlimit: 10; fill: #ffffff; fill-rule: nonzero; opacity: 1;" transform=" matrix(0.9999969412817864 0 0 0.9999969412817864 0 0) " stroke-linecap="round" />
  <path d="M 81.29 20.021 c 13.03 -9.015 26.73 -15.11 39.595 -18.214 c -16.963 -0.329 -37.746 6.348 -56.985 19.66 c -34.083 23.58 -50.409 59.035 -36.465 79.192 c 6.145 8.881 17.144 13.305 30.44 13.464 c -6.166 -2.328 -11.25 -6.02 -14.788 -11.134 c -14.61 -21.117 2.495 -58.263 38.203 -82.968 z" style="stroke: none; stroke-width: 1; stroke-dasharray: none; stroke-linecap: butt; stroke-linejoin: miter; stroke-miterlimit: 10; fill: #0f1628; fill-rule: nonzero; opacity: 1;" transform=" matrix(0.9999969412817864 0 0 0.9999969412817864 0 0) " stroke-linecap="round" />
  <path d="M 139.033 57.578 l -19.28 19.256 v 18.381 l 37.686 -37.637 l -37.686 -37.635 v 18.381 z" style="stroke: none; stroke-width: 1; stroke-dasharray: none; stroke-linecap: butt; stroke-linejoin: miter; stroke-miterlimit: 10; fill: #0f1628; fill-rule: nonzero; opacity: 1;" transform=" matrix(0.9999969412817864 0 0 0.9999969412817864 0 0) " stroke-linecap="round" />
  <path d="M 106.472 57.482 v 18.653 l 18.843 -18.819 l -18.843 -18.818 v 9.19 z" style="stroke: none; stroke-width: 1; stroke-dasharray: none; stroke-linecap: butt; stroke-linejoin: miter; stroke-miterlimit: 10; fill: #0f1628; fill-rule: nonzero; opacity: 1;" transform=" matrix(0.9999969412817864 0 0 0.9999969412817864 0 0) " stroke-linecap="round" />
</g>
</svg>